<mxfile host="app.diagrams.net" agent="Mozilla/5.0 (Windows NT 10.0; Win64; x64) AppleWebKit/537.36 (KHTML, like Gecko) Chrome/128.0.0.0 Safari/537.36" version="24.7.17">
  <diagram name="StrÃ¡nka-1" id="PfWHx4o5cT6_-_cHjWci">
    <mxGraphModel dx="1434" dy="780" grid="1" gridSize="10" guides="1" tooltips="1" connect="1" arrows="1" fold="1" page="1" pageScale="1" pageWidth="827" pageHeight="1169" math="0" shadow="0">
      <root>
        <mxCell id="0" />
        <mxCell id="1" parent="0" />
        <mxCell id="JeWXapqgd2-bwU4x4K4d-5" value="POST /process" style="text;html=1;align=center;verticalAlign=middle;resizable=0;points=[];autosize=1;strokeColor=none;fillColor=none;" vertex="1" parent="1">
          <mxGeometry x="200" y="258" width="100" height="30" as="geometry" />
        </mxCell>
        <mxCell id="JeWXapqgd2-bwU4x4K4d-6" value="Speech to text" style="rounded=1;whiteSpace=wrap;html=1;fillColor=#007FFF;" vertex="1" parent="1">
          <mxGeometry x="657" y="243" width="170" height="60" as="geometry" />
        </mxCell>
        <mxCell id="JeWXapqgd2-bwU4x4K4d-7" value="" style="shape=flexArrow;endArrow=classic;html=1;rounded=0;exitX=0.5;exitY=1;exitDx=0;exitDy=0;" edge="1" parent="1" source="JeWXapqgd2-bwU4x4K4d-30" target="JeWXapqgd2-bwU4x4K4d-25">
          <mxGeometry width="50" height="50" relative="1" as="geometry">
            <mxPoint x="355.8599999999999" y="303.36" as="sourcePoint" />
            <mxPoint x="505" y="465" as="targetPoint" />
          </mxGeometry>
        </mxCell>
        <mxCell id="JeWXapqgd2-bwU4x4K4d-11" value="Client" style="rounded=1;whiteSpace=wrap;html=1;fillColor=#007FFF;" vertex="1" parent="1">
          <mxGeometry x="30" y="200" width="170" height="80" as="geometry" />
        </mxCell>
        <mxCell id="JeWXapqgd2-bwU4x4K4d-13" value="Paraphrase" style="rounded=1;whiteSpace=wrap;html=1;fillColor=#007FFF;" vertex="1" parent="1">
          <mxGeometry x="657" y="550" width="170" height="60" as="geometry" />
        </mxCell>
        <mxCell id="JeWXapqgd2-bwU4x4K4d-15" value="" style="shape=flexArrow;endArrow=classic;html=1;rounded=0;exitX=0.5;exitY=1;exitDx=0;exitDy=0;entryX=0.5;entryY=0;entryDx=0;entryDy=0;" edge="1" parent="1" source="JeWXapqgd2-bwU4x4K4d-6" target="JeWXapqgd2-bwU4x4K4d-13">
          <mxGeometry width="50" height="50" relative="1" as="geometry">
            <mxPoint x="390" y="430" as="sourcePoint" />
            <mxPoint x="440" y="380" as="targetPoint" />
          </mxGeometry>
        </mxCell>
        <mxCell id="JeWXapqgd2-bwU4x4K4d-16" value="Text" style="text;html=1;align=center;verticalAlign=middle;resizable=0;points=[];autosize=1;strokeColor=none;fillColor=none;" vertex="1" parent="1">
          <mxGeometry x="750" y="406" width="50" height="30" as="geometry" />
        </mxCell>
        <mxCell id="JeWXapqgd2-bwU4x4K4d-17" value="TTS" style="rounded=1;whiteSpace=wrap;html=1;fillColor=#007FFF;" vertex="1" parent="1">
          <mxGeometry x="350" y="550" width="170" height="60" as="geometry" />
        </mxCell>
        <mxCell id="JeWXapqgd2-bwU4x4K4d-18" value="" style="shape=flexArrow;endArrow=classic;html=1;rounded=0;exitX=0;exitY=0.5;exitDx=0;exitDy=0;entryX=1;entryY=0.5;entryDx=0;entryDy=0;" edge="1" parent="1" source="JeWXapqgd2-bwU4x4K4d-13" target="JeWXapqgd2-bwU4x4K4d-17">
          <mxGeometry width="50" height="50" relative="1" as="geometry">
            <mxPoint x="390" y="530" as="sourcePoint" />
            <mxPoint x="440" y="480" as="targetPoint" />
          </mxGeometry>
        </mxCell>
        <mxCell id="JeWXapqgd2-bwU4x4K4d-19" value="Edited text" style="text;html=1;align=center;verticalAlign=middle;resizable=0;points=[];autosize=1;strokeColor=none;fillColor=none;" vertex="1" parent="1">
          <mxGeometry x="570" y="540" width="80" height="30" as="geometry" />
        </mxCell>
        <mxCell id="JeWXapqgd2-bwU4x4K4d-20" value="" style="shape=flexArrow;endArrow=classic;html=1;rounded=0;exitX=0;exitY=0.5;exitDx=0;exitDy=0;entryX=1;entryY=0.5;entryDx=0;entryDy=0;" edge="1" parent="1" source="JeWXapqgd2-bwU4x4K4d-17" target="JeWXapqgd2-bwU4x4K4d-26">
          <mxGeometry width="50" height="50" relative="1" as="geometry">
            <mxPoint x="625" y="539" as="sourcePoint" />
            <mxPoint x="625" y="470" as="targetPoint" />
          </mxGeometry>
        </mxCell>
        <mxCell id="JeWXapqgd2-bwU4x4K4d-21" value="New audio file" style="text;html=1;align=center;verticalAlign=middle;resizable=0;points=[];autosize=1;strokeColor=none;fillColor=none;" vertex="1" parent="1">
          <mxGeometry x="245" y="591" width="100" height="30" as="geometry" />
        </mxCell>
        <mxCell id="JeWXapqgd2-bwU4x4K4d-23" value="" style="shape=flexArrow;endArrow=classic;html=1;rounded=0;exitX=0.073;exitY=0.154;exitDx=0;exitDy=0;entryX=1;entryY=0.25;entryDx=0;entryDy=0;fillColor=none;shadow=0;exitPerimeter=0;" edge="1" parent="1" source="JeWXapqgd2-bwU4x4K4d-30" target="JeWXapqgd2-bwU4x4K4d-11">
          <mxGeometry width="50" height="50" relative="1" as="geometry">
            <mxPoint x="329" y="240" as="sourcePoint" />
            <mxPoint x="280" y="220" as="targetPoint" />
          </mxGeometry>
        </mxCell>
        <mxCell id="JeWXapqgd2-bwU4x4K4d-25" value="Database(MongoDB)" style="shape=cylinder3;whiteSpace=wrap;html=1;boundedLbl=1;backgroundOutline=1;size=15;fillColor=#007FFF;" vertex="1" parent="1">
          <mxGeometry x="370" y="390" width="120" height="75" as="geometry" />
        </mxCell>
        <mxCell id="JeWXapqgd2-bwU4x4K4d-26" value="Storage(GridFS)" style="rounded=1;whiteSpace=wrap;html=1;fillColor=#007FFF;" vertex="1" parent="1">
          <mxGeometry x="50" y="539" width="170" height="82" as="geometry" />
        </mxCell>
        <mxCell id="JeWXapqgd2-bwU4x4K4d-27" value="" style="shape=flexArrow;endArrow=classic;html=1;rounded=0;exitX=0.968;exitY=0.558;exitDx=0;exitDy=0;entryX=0;entryY=0.5;entryDx=0;entryDy=0;exitPerimeter=0;" edge="1" parent="1" source="JeWXapqgd2-bwU4x4K4d-30" target="JeWXapqgd2-bwU4x4K4d-6">
          <mxGeometry width="50" height="50" relative="1" as="geometry">
            <mxPoint x="499" y="270" as="sourcePoint" />
            <mxPoint x="570" y="230" as="targetPoint" />
          </mxGeometry>
        </mxCell>
        <mxCell id="JeWXapqgd2-bwU4x4K4d-28" value="Audio ID" style="text;html=1;align=center;verticalAlign=middle;resizable=0;points=[];autosize=1;strokeColor=none;fillColor=none;" vertex="1" parent="1">
          <mxGeometry x="550" y="228" width="70" height="30" as="geometry" />
        </mxCell>
        <mxCell id="JeWXapqgd2-bwU4x4K4d-29" value="&lt;div&gt;TaskEntity&lt;/div&gt;AudioFileEntity" style="text;html=1;align=center;verticalAlign=middle;resizable=0;points=[];autosize=1;strokeColor=none;fillColor=none;" vertex="1" parent="1">
          <mxGeometry x="450" y="330" width="100" height="40" as="geometry" />
        </mxCell>
        <mxCell id="JeWXapqgd2-bwU4x4K4d-30" value="API" style="shape=hexagon;perimeter=hexagonPerimeter2;whiteSpace=wrap;html=1;fixedSize=1;rounded=1;fillColor=#007FFF;" vertex="1" parent="1">
          <mxGeometry x="360" y="200" width="130" height="130" as="geometry" />
        </mxCell>
        <mxCell id="JeWXapqgd2-bwU4x4K4d-31" value="" style="shape=flexArrow;endArrow=classic;html=1;rounded=0;exitX=1.01;exitY=0.688;exitDx=0;exitDy=0;entryX=0.04;entryY=0.404;entryDx=0;entryDy=0;fillColor=none;shadow=0;exitPerimeter=0;entryPerimeter=0;" edge="1" parent="1" source="JeWXapqgd2-bwU4x4K4d-11" target="JeWXapqgd2-bwU4x4K4d-30">
          <mxGeometry width="50" height="50" relative="1" as="geometry">
            <mxPoint x="360" y="230" as="sourcePoint" />
            <mxPoint x="190" y="210" as="targetPoint" />
          </mxGeometry>
        </mxCell>
        <mxCell id="JeWXapqgd2-bwU4x4K4d-32" value="" style="shape=flexArrow;endArrow=classic;html=1;rounded=0;exitX=0.5;exitY=0;exitDx=0;exitDy=0;entryX=0;entryY=0.5;entryDx=0;entryDy=0;" edge="1" parent="1" source="JeWXapqgd2-bwU4x4K4d-30" target="JeWXapqgd2-bwU4x4K4d-26">
          <mxGeometry width="50" height="50" relative="1" as="geometry">
            <mxPoint x="307.8599999999999" y="302.86" as="sourcePoint" />
            <mxPoint x="180" y="512.5" as="targetPoint" />
            <Array as="points">
              <mxPoint x="425" y="140" />
              <mxPoint x="10" y="140" />
              <mxPoint x="10" y="580" />
            </Array>
          </mxGeometry>
        </mxCell>
        <mxCell id="JeWXapqgd2-bwU4x4K4d-33" value="Audio files" style="text;html=1;align=center;verticalAlign=middle;resizable=0;points=[];autosize=1;strokeColor=none;fillColor=none;" vertex="1" parent="1">
          <mxGeometry x="255" y="100" width="80" height="30" as="geometry" />
        </mxCell>
        <mxCell id="JeWXapqgd2-bwU4x4K4d-34" value="" style="shape=flexArrow;endArrow=classic;html=1;rounded=0;entryX=0.5;entryY=1;entryDx=0;entryDy=0;entryPerimeter=0;exitX=0.471;exitY=0;exitDx=0;exitDy=0;exitPerimeter=0;" edge="1" parent="1" source="JeWXapqgd2-bwU4x4K4d-17" target="JeWXapqgd2-bwU4x4K4d-25">
          <mxGeometry width="50" height="50" relative="1" as="geometry">
            <mxPoint x="440" y="510" as="sourcePoint" />
            <mxPoint x="490" y="460" as="targetPoint" />
          </mxGeometry>
        </mxCell>
        <mxCell id="JeWXapqgd2-bwU4x4K4d-35" value="TTSAudioFileEntity" style="text;html=1;align=center;verticalAlign=middle;resizable=0;points=[];autosize=1;strokeColor=none;fillColor=none;" vertex="1" parent="1">
          <mxGeometry x="425" y="490" width="130" height="30" as="geometry" />
        </mxCell>
        <mxCell id="JeWXapqgd2-bwU4x4K4d-36" value="TaskEntity ID&lt;div&gt;Generated audio from TTS&lt;/div&gt;" style="text;html=1;align=center;verticalAlign=middle;resizable=0;points=[];autosize=1;strokeColor=none;fillColor=none;" vertex="1" parent="1">
          <mxGeometry x="165" y="163" width="170" height="40" as="geometry" />
        </mxCell>
      </root>
    </mxGraphModel>
  </diagram>
</mxfile>
